<svg width="217" height="217" viewBox="0 0 217 217" fill="none" xmlns="http://www.w3.org/2000/svg">
<path fill-rule="evenodd" clip-rule="evenodd" d="M195 108.5C195 156.273 156.273 195 108.5 195C60.7274 195 22 156.273 22 108.5C22 60.7274 60.7274 22 108.5 22C156.273 22 195 60.7274 195 108.5ZM182 108.5C182 149.093 149.093 182 108.5 182C67.9071 182 35 149.093 35 108.5C35 67.907 67.9071 35 108.5 35C149.093 35 182 67.907 182 108.5ZM73.4988 63.3713C78.7284 59.3002 86.2389 60.2018 90.2739 65.3853L140.2 129.519L140.104 129.593L142.343 151.871L121.251 144.309L134.568 133.903L121.261 144.261L71.3358 80.128C67.3008 74.9446 68.2692 67.4423 73.4988 63.3713Z" fill="#16B1B5"/>
</svg>
